<?xml version="1.0" encoding="UTF-8"?>
<svg id="Layer_1" data-name="Layer 1" xmlns="http://www.w3.org/2000/svg" viewBox="0 0 2852.04 438.49">
  <defs>
    <style>
      .cls-1 {
        fill: #34c1a9;
      }
    </style>
  </defs>
  <path d="M260.62,418.47l-46.02-198.61h-.81l-46.02,198.61h-70.91L17.66,111.63h79.59l41.05,199.42h.81l45.2-199.42h60.13l44.35,200.27h.81l41.87-200.27h79.2l-81.26,306.8h-68.81v.04Z"/>
  <path d="M465.19,324.34c3.72,26.13,25.7,43.54,53.89,43.54,18.65,0,30.66-7.06,41.87-21.55h70.48c-21.98,50.16-63.85,79.59-112.35,79.59-66.33,0-121.88-53.5-121.88-121.88s53.07-123.55,120.64-123.55,121.5,54.31,121.5,125.64c0,6.63-.43,12.02-1.67,18.26h-172.48v-.04ZM570.48,277.9c-5.39-23.65-26.13-39.39-52.65-39.39-24.89,0-46.44,14.93-51.83,39.39h104.48Z"/>
  <path d="M667.36,418.47V111.63h68.81v306.8h-68.81v.04Z"/>
  <path d="M772,418.47V111.63h68.81v306.8h-68.81v.04Z"/>
  <path d="M1053.37,418.47v-24.89h-.81c-9.96,20.31-37.3,32.76-67.58,32.76-67.99,0-115.25-53.5-115.25-123.12s49.35-122.74,115.25-122.74c28.19,0,54.31,11.2,67.58,32.33h.81v-24.46h68.81v230.12h-68.81ZM1053.37,303.18c0-32.33-26.13-58.46-58.46-58.46s-56.41,26.13-56.41,59.27,25.28,58.03,57.23,58.03,57.64-25.7,57.64-58.89v.04Z"/>
  <path class="cls-1" d="M1359.79,418.47l-117.74-187.4,2.05,187.4h-75.05V111.63h67.58l119.4,194.03-3.34-194.03h75.05v306.8h-67.99l.04.04Z"/>
  <path class="cls-1" d="M1639.8,418.47v-24.89h-.82c-9.96,20.31-37.3,32.76-67.57,32.76-68,0-115.25-53.5-115.25-123.12s49.35-122.74,115.25-122.74c28.18,0,54.31,11.2,67.57,32.33h.82v-24.46h68.81v230.12h-68.81ZM1639.8,303.18c0-32.33-26.13-58.46-58.46-58.46s-56.41,26.13-56.41,59.27,25.28,58.03,57.22,58.03,57.65-25.7,57.65-58.89v.04Z"/>
  <path class="cls-1" d="M1768.35,418.47v-177.86h-34v-52.26h34v-76.72h68.81v76.72h33.19v52.26h-33.19v177.86h-68.81Z"/>
  <path class="cls-1" d="M2041.97,418.47v-24.46h-.81c-9.97,21.13-28.19,31.94-59.27,31.94-48.5,0-88.74-29.04-88.74-94.51v-143.05h68.81v128.94c0,30.28,10.78,44.35,36.91,44.35s39.39-17.41,39.39-45.59v-127.7h68.81v230.12h-65.1v-.04Z"/>
  <path class="cls-1" d="M2142.45,418.47v-230.12h64.66v24.46h.82c12.02-24.46,31.09-32.33,57.64-32.33v69.24c-41.05.43-54.31,15.74-54.31,41.87v126.89h-68.81Z"/>
  <path class="cls-1" d="M2456.74,418.47v-24.89h-.81c-9.97,20.31-37.3,32.76-67.58,32.76-67.99,0-115.25-53.5-115.25-123.12s49.35-122.74,115.25-122.74c28.19,0,54.31,11.2,67.58,32.33h.81v-24.46h68.81v230.12h-68.81ZM2456.74,303.18c0-32.33-26.13-58.46-58.46-58.46s-56.41,26.13-56.41,59.27,25.28,58.03,57.22,58.03,57.65-25.7,57.65-58.89v.04Z"/>
  <path class="cls-1" d="M2556.11,418.47V111.63h68.81v306.8h-68.81v.04Z"/>
  <path class="cls-1" d="M2766.3,253.01c-.43-13.26-9.97-17.41-21.13-17.41s-19.89,6.63-19.89,15.35c0,12.44,11.21,18.65,43.11,26.94,54.74,14.5,72.57,36.48,72.57,70.05,0,48.11-41.44,78.35-93.7,78.35s-88.74-29.42-93.7-76.29h68.43c2.09,14.5,12.44,21.13,26.13,21.13,12.02,0,24.04-7.06,24.04-17.83,0-12.87-7.87-19.5-42.29-30.28-58.04-17.83-73.39-40.63-73.39-67.57,0-45.59,42.73-75.05,89.13-75.05,49.74,0,84.98,27.37,88.31,72.57h-67.57l-.04.04Z"/>
  <path class="cls-1" d="M1574.71,157.53c-132.9,4.42-134.09-117.35-134.09-117.35,0,0,126.76-9.77,134.09,117.35Z"/>
  <path class="cls-1" d="M1602.24,145.39c-59.23-84.9,26.83-139.37,26.83-139.37,0,0,60.48,78.54-26.83,139.37Z"/>
</svg>